<?xml version="1.0" encoding="utf-8"?>
<!-- Generator: Adobe Illustrator 24.1.0, SVG Export Plug-In . SVG Version: 6.00 Build 0)  -->
<svg version="1.1" id="Layer_1" xmlns="http://www.w3.org/2000/svg" xmlns:xlink="http://www.w3.org/1999/xlink" x="0px" y="0px"
	 viewBox="0 0 19.34 19.34" style="enable-background:new 0 0 19.34 19.34;" xml:space="preserve">
<style type="text/css">
	.st0{fill:#FFFFFF;}
	.st1{fill:#0087B0;}
	.st2{fill-rule:evenodd;clip-rule:evenodd;fill:#3A3A3A;stroke:#3A3A3A;stroke-miterlimit:10;}
</style>
<g>
	<path class="st0" d="M-352.46-33.58c-0.86,1.4-1.7,2.56-1.73,2.61l-0.62,0.85l-0.62-0.85c-0.03-0.05-0.88-1.21-1.74-2.61
		c-1.21-1.98-1.8-3.35-1.8-4.19c0-2.08,1.86-3.78,4.16-3.78c2.29,0,4.15,1.7,4.15,3.78C-350.66-36.93-351.25-35.56-352.46-33.58z"/>
	<path class="st1" d="M-354.81-39.79c-1.19,0-2.16,0.88-2.16,1.96c0,1.08,0.97,1.96,2.16,1.96c1.19,0,2.15-0.88,2.15-1.96
		C-352.66-38.92-353.63-39.79-354.81-39.79z"/>
</g>
<g>
	<path class="st2" d="M10.08,17.93c-5.17,0-9-4.22-8.45-9.1c0.38-3.37,2.22-5.74,5.41-6.88c3.15-1.12,6.01-0.44,8.49,1.81
		c0.19,0.18,0.33,0.39,0.14,0.61c-0.1,0.11-0.32,0.16-0.49,0.17c-0.1,0-0.21-0.14-0.3-0.23C13.4,2.94,11.65,2.27,9.65,2.3
		c-4.3,0.05-7.66,3.86-7.19,8.14c0.44,3.98,3.77,6.84,7.77,6.63c1.75-0.09,3.28-0.76,4.58-1.94c0.06-0.06,0.12-0.11,0.18-0.17
		c0.2-0.2,0.42-0.23,0.63-0.03c0.23,0.22,0.17,0.47-0.05,0.65c-0.54,0.43-1.06,0.88-1.64,1.24C12.67,17.57,11.28,17.91,10.08,17.93z
		"/>
	<path class="st2" d="M16.29,10.11c-0.18,0-0.29,0-0.41,0c-1.27,0-2.53,0-3.8,0c-0.38,0-0.57-0.15-0.57-0.43
		c0-0.28,0.19-0.43,0.57-0.43c1.27,0,2.53,0,3.8,0c0.11,0,0.23,0,0.34,0c0.02-0.03,0.03-0.06,0.05-0.09
		c-0.37-0.36-0.74-0.71-1.12-1.07c-0.08-0.08-0.17-0.16-0.25-0.25c-0.18-0.2-0.18-0.41,0.01-0.6c0.18-0.18,0.4-0.17,0.57,0
		c0.72,0.71,1.43,1.42,2.13,2.13c0.19,0.19,0.19,0.41,0,0.6c-0.71,0.72-1.42,1.43-2.13,2.13c-0.19,0.19-0.41,0.17-0.6-0.02
		c-0.18-0.18-0.16-0.39,0.01-0.57c0.35-0.37,0.72-0.72,1.08-1.08C16.07,10.35,16.15,10.25,16.29,10.11z"/>
	<path class="st2" d="M10.23,9.66C10.2,9.94,10.06,10.1,9.8,10.1c-0.26-0.01-0.42-0.17-0.41-0.43c0.01-0.25,0.16-0.4,0.41-0.4
		C10.06,9.25,10.19,9.43,10.23,9.66z"/>
</g>
</svg>
